<svg width="750" height="800" viewBox="0 0 750 800">
  <g id="polygon_design_1" data-name="polygon design 1" transform="translate(-791 -260)">
    <g id="Polygon_1" data-name="Polygon 1" transform="translate(1241 260)" fill="#0c4d98">
      <path d="M 144.1526947021484 131.4930419921875 L 75.22503662109375 96.75350189208984 L 75 96.64008331298828 L 74.77496337890625 96.75350189208984 L 5.847310543060303 131.4930419921875 L 69.28791809082031 86.80877685546875 L 69.48232269287109 86.67185974121094 L 69.49880218505859 86.43463897705078 L 75 7.217360019683838 L 80.50119781494141 86.43463897705078 L 80.51767730712891 86.67185974121094 L 80.71208190917969 86.80877685546875 L 144.1526947021484 131.4930419921875 Z" stroke="none"/>
      <path d="M 75 14.43472290039062 L 69.99759674072266 86.46928405761719 L 69.96466064453125 86.94369506835938 L 69.57584381103516 87.21755981445312 L 11.69456481933594 127.9861068725586 L 74.54994201660156 96.30699920654297 L 75 96.08018493652344 L 75.45005798339844 96.30699920654297 L 138.3054351806641 127.9861068725586 L 80.42415618896484 87.21755981445312 L 80.03533935546875 86.94369506835938 L 80.00240325927734 86.46928405761719 L 75 14.43472290039062 M 75 0 L 81 86.40000152587891 L 150 135 L 75 97.19999694824219 L 0 135 L 69 86.40000152587891 L 75 0 Z" stroke="none" fill="#fff"/>
    </g>
    <g id="Polygon_3" data-name="Polygon 3" transform="translate(1241 430)" fill="#cbe6ff">
      <path d="M 144.1526947021484 131.4930419921875 L 75.22503662109375 96.75350189208984 L 75 96.64008331298828 L 74.77496337890625 96.75350189208984 L 5.847310543060303 131.4930419921875 L 69.28791809082031 86.80877685546875 L 69.48232269287109 86.67185974121094 L 69.49880218505859 86.43463897705078 L 75 7.217360019683838 L 80.50119781494141 86.43463897705078 L 80.51767730712891 86.67185974121094 L 80.71208190917969 86.80877685546875 L 144.1526947021484 131.4930419921875 Z" stroke="none"/>
      <path d="M 75 14.43472290039062 L 69.99759674072266 86.46928405761719 L 69.96466064453125 86.94369506835938 L 69.57584381103516 87.21755981445312 L 11.69456481933594 127.9861068725586 L 74.54994201660156 96.30699920654297 L 75 96.08018493652344 L 75.45005798339844 96.30699920654297 L 138.3054351806641 127.9861068725586 L 80.42415618896484 87.21755981445312 L 80.03533935546875 86.94369506835938 L 80.00240325927734 86.46928405761719 L 75 14.43472290039062 M 75 0 L 81 86.40000152587891 L 150 135 L 75 97.19999694824219 L 0 135 L 69 86.40000152587891 L 75 0 Z" stroke="none" fill="#fff"/>
    </g>
    <path id="Polygon_9" data-name="Polygon 9" d="M75,0l6,86.4L150,135,75,97.2,0,135,69,86.4Z" transform="translate(1391 260)" fill="#cbe6ff"/>
    <g id="Polygon_5" data-name="Polygon 5" transform="translate(1241 600)" fill="#0c4d98">
      <path d="M 144.1526947021484 131.4930419921875 L 75.22503662109375 96.75350189208984 L 75 96.64008331298828 L 74.77496337890625 96.75350189208984 L 5.847310543060303 131.4930419921875 L 69.28791809082031 86.80877685546875 L 69.48232269287109 86.67185974121094 L 69.49880218505859 86.43463897705078 L 75 7.217360019683838 L 80.50119781494141 86.43463897705078 L 80.51767730712891 86.67185974121094 L 80.71208190917969 86.80877685546875 L 144.1526947021484 131.4930419921875 Z" stroke="none"/>
      <path d="M 75 14.43472290039062 L 69.99759674072266 86.46928405761719 L 69.96466064453125 86.94369506835938 L 69.57584381103516 87.21755981445312 L 11.69456481933594 127.9861068725586 L 74.54994201660156 96.30699920654297 L 75 96.08018493652344 L 75.45005798339844 96.30699920654297 L 138.3054351806641 127.9861068725586 L 80.42415618896484 87.21755981445312 L 80.03533935546875 86.94369506835938 L 80.00240325927734 86.46928405761719 L 75 14.43472290039062 M 75 0 L 81 86.40000152587891 L 150 135 L 75 97.19999694824219 L 0 135 L 69 86.40000152587891 L 75 0 Z" stroke="none" fill="#fff"/>
    </g>
    <g id="Polygon_15" data-name="Polygon 15" transform="translate(1241 600)" fill="#0c4d98">
      <path d="M 144.1526947021484 131.4930419921875 L 75.22503662109375 96.75350189208984 L 75 96.64008331298828 L 74.77496337890625 96.75350189208984 L 5.847310543060303 131.4930419921875 L 69.28791809082031 86.80877685546875 L 69.48232269287109 86.67185974121094 L 69.49880218505859 86.43463897705078 L 75 7.217360019683838 L 80.50119781494141 86.43463897705078 L 80.51767730712891 86.67185974121094 L 80.71208190917969 86.80877685546875 L 144.1526947021484 131.4930419921875 Z" stroke="none"/>
      <path d="M 75 14.43472290039062 L 69.99759674072266 86.46928405761719 L 69.96466064453125 86.94369506835938 L 69.57584381103516 87.21755981445312 L 11.69456481933594 127.9861068725586 L 74.54994201660156 96.30699920654297 L 75 96.08018493652344 L 75.45005798339844 96.30699920654297 L 138.3054351806641 127.9861068725586 L 80.42415618896484 87.21755981445312 L 80.03533935546875 86.94369506835938 L 80.00240325927734 86.46928405761719 L 75 14.43472290039062 M 75 0 L 81 86.40000152587891 L 150 135 L 75 97.19999694824219 L 0 135 L 69 86.40000152587891 L 75 0 Z" stroke="none" fill="#fff"/>
    </g>
    <g id="Polygon_13" data-name="Polygon 13" transform="translate(791 870)" fill="#cbe6ff">
      <path d="M 144.1526947021484 131.4930419921875 L 75.22503662109375 96.75350189208984 L 75 96.64008331298828 L 74.77496337890625 96.75350189208984 L 5.847310543060303 131.4930419921875 L 69.28791809082031 86.80877685546875 L 69.48232269287109 86.67185974121094 L 69.49880218505859 86.43463897705078 L 75 7.217360019683838 L 80.50119781494141 86.43463897705078 L 80.51767730712891 86.67185974121094 L 80.71208190917969 86.80877685546875 L 144.1526947021484 131.4930419921875 Z" stroke="none"/>
      <path d="M 75 14.43472290039062 L 69.99759674072266 86.46928405761719 L 69.96466064453125 86.94369506835938 L 69.57584381103516 87.21755981445312 L 11.69456481933594 127.9861068725586 L 74.54994201660156 96.30699920654297 L 75 96.08018493652344 L 75.45005798339844 96.30699920654297 L 138.3054351806641 127.9861068725586 L 80.42415618896484 87.21755981445312 L 80.03533935546875 86.94369506835938 L 80.00240325927734 86.46928405761719 L 75 14.43472290039062 M 75 0 L 81 86.40000152587891 L 150 135 L 75 97.19999694824219 L 0 135 L 69 86.40000152587891 L 75 0 Z" stroke="none" fill="#fff"/>
    </g>
    <g id="Polygon_11" data-name="Polygon 11" transform="translate(941 735)" fill="#0c4d98">
      <path d="M 144.1526947021484 131.4930419921875 L 75.22503662109375 96.75350189208984 L 75 96.64008331298828 L 74.77496337890625 96.75350189208984 L 5.847310543060303 131.4930419921875 L 69.28791809082031 86.80877685546875 L 69.48232269287109 86.67185974121094 L 69.49880218505859 86.43463897705078 L 75 7.217360019683838 L 80.50119781494141 86.43463897705078 L 80.51767730712891 86.67185974121094 L 80.71208190917969 86.80877685546875 L 144.1526947021484 131.4930419921875 Z" stroke="none"/>
      <path d="M 75 14.43472290039062 L 69.99759674072266 86.46928405761719 L 69.96466064453125 86.94369506835938 L 69.57584381103516 87.21755981445312 L 11.69456481933594 127.9861068725586 L 74.54994201660156 96.30699920654297 L 75 96.08018493652344 L 75.45005798339844 96.30699920654297 L 138.3054351806641 127.9861068725586 L 80.42415618896484 87.21755981445312 L 80.03533935546875 86.94369506835938 L 80.00240325927734 86.46928405761719 L 75 14.43472290039062 M 75 0 L 81 86.40000152587891 L 150 135 L 75 97.19999694824219 L 0 135 L 69 86.40000152587891 L 75 0 Z" stroke="none" fill="#fff"/>
    </g>
    <g id="Polygon_7" data-name="Polygon 7" transform="translate(1091 600)" fill="#cbe6ff">
      <path d="M 144.1526947021484 131.4930419921875 L 75.22503662109375 96.75350189208984 L 75 96.64008331298828 L 74.77496337890625 96.75350189208984 L 5.847310543060303 131.4930419921875 L 69.28791809082031 86.80877685546875 L 69.48232269287109 86.67185974121094 L 69.49880218505859 86.43463897705078 L 75 7.217360019683838 L 80.50119781494141 86.43463897705078 L 80.51767730712891 86.67185974121094 L 80.71208190917969 86.80877685546875 L 144.1526947021484 131.4930419921875 Z" stroke="none"/>
      <path d="M 75 14.43472290039062 L 69.99759674072266 86.46928405761719 L 69.96466064453125 86.94369506835938 L 69.57584381103516 87.21755981445312 L 11.69456481933594 127.9861068725586 L 74.54994201660156 96.30699920654297 L 75 96.08018493652344 L 75.45005798339844 96.30699920654297 L 138.3054351806641 127.9861068725586 L 80.42415618896484 87.21755981445312 L 80.03533935546875 86.94369506835938 L 80.00240325927734 86.46928405761719 L 75 14.43472290039062 M 75 0 L 81 86.40000152587891 L 150 135 L 75 97.19999694824219 L 0 135 L 69 86.40000152587891 L 75 0 Z" stroke="none" fill="#fff"/>
    </g>
    <g id="Polygon_2" data-name="Polygon 2" transform="translate(1391 450) rotate(180)" fill="#0c4d98">
      <path d="M 144.1526947021484 131.4930419921875 L 75.22503662109375 96.75350189208984 L 75 96.64008331298828 L 74.77496337890625 96.75350189208984 L 5.847310543060303 131.4930419921875 L 69.28791809082031 86.80877685546875 L 69.48232269287109 86.67185974121094 L 69.49880218505859 86.43463897705078 L 75 7.217360019683838 L 80.50119781494141 86.43463897705078 L 80.51767730712891 86.67185974121094 L 80.71208190917969 86.80877685546875 L 144.1526947021484 131.4930419921875 Z" stroke="none"/>
      <path d="M 75 14.43472290039062 L 69.99759674072266 86.46928405761719 L 69.96466064453125 86.94369506835938 L 69.57584381103516 87.21755981445312 L 11.69456481933594 127.9861068725586 L 74.54994201660156 96.30699920654297 L 75 96.08018493652344 L 75.45005798339844 96.30699920654297 L 138.3054351806641 127.9861068725586 L 80.42415618896484 87.21755981445312 L 80.03533935546875 86.94369506835938 L 80.00240325927734 86.46928405761719 L 75 14.43472290039062 M 75 0 L 81 86.40000152587891 L 150 135 L 75 97.19999694824219 L 0 135 L 69 86.40000152587891 L 75 0 Z" stroke="none" fill="#fff"/>
    </g>
    <g id="Polygon_4" data-name="Polygon 4" transform="translate(1391 620) rotate(180)" fill="#cbe6ff">
      <path d="M 144.1526947021484 131.4930419921875 L 75.22503662109375 96.75350189208984 L 75 96.64008331298828 L 74.77496337890625 96.75350189208984 L 5.847310543060303 131.4930419921875 L 69.28791809082031 86.80877685546875 L 69.48232269287109 86.67185974121094 L 69.49880218505859 86.43463897705078 L 75 7.217360019683838 L 80.50119781494141 86.43463897705078 L 80.51767730712891 86.67185974121094 L 80.71208190917969 86.80877685546875 L 144.1526947021484 131.4930419921875 Z" stroke="none"/>
      <path d="M 75 14.43472290039062 L 69.99759674072266 86.46928405761719 L 69.96466064453125 86.94369506835938 L 69.57584381103516 87.21755981445312 L 11.69456481933594 127.9861068725586 L 74.54994201660156 96.30699920654297 L 75 96.08018493652344 L 75.45005798339844 96.30699920654297 L 138.3054351806641 127.9861068725586 L 80.42415618896484 87.21755981445312 L 80.03533935546875 86.94369506835938 L 80.00240325927734 86.46928405761719 L 75 14.43472290039062 M 75 0 L 81 86.40000152587891 L 150 135 L 75 97.19999694824219 L 0 135 L 69 86.40000152587891 L 75 0 Z" stroke="none" fill="#fff"/>
    </g>
    <path id="Polygon_10" data-name="Polygon 10" d="M75,0l6,86.4L150,135,75,97.2,0,135,69,86.4Z" transform="translate(1541 450) rotate(180)" fill="#cbe6ff"/>
    <g id="Polygon_6" data-name="Polygon 6" transform="translate(1391 790) rotate(180)" fill="#0c4d98">
      <path d="M 144.1526947021484 131.4930419921875 L 75.22503662109375 96.75350189208984 L 75 96.64008331298828 L 74.77496337890625 96.75350189208984 L 5.847310543060303 131.4930419921875 L 69.28791809082031 86.80877685546875 L 69.48232269287109 86.67185974121094 L 69.49880218505859 86.43463897705078 L 75 7.217360019683838 L 80.50119781494141 86.43463897705078 L 80.51767730712891 86.67185974121094 L 80.71208190917969 86.80877685546875 L 144.1526947021484 131.4930419921875 Z" stroke="none"/>
      <path d="M 75 14.43472290039062 L 69.99759674072266 86.46928405761719 L 69.96466064453125 86.94369506835938 L 69.57584381103516 87.21755981445312 L 11.69456481933594 127.9861068725586 L 74.54994201660156 96.30699920654297 L 75 96.08018493652344 L 75.45005798339844 96.30699920654297 L 138.3054351806641 127.9861068725586 L 80.42415618896484 87.21755981445312 L 80.03533935546875 86.94369506835938 L 80.00240325927734 86.46928405761719 L 75 14.43472290039062 M 75 0 L 81 86.40000152587891 L 150 135 L 75 97.19999694824219 L 0 135 L 69 86.40000152587891 L 75 0 Z" stroke="none" fill="#fff"/>
    </g>
    <g id="Polygon_16" data-name="Polygon 16" transform="translate(1391 790) rotate(180)" fill="#0c4d98">
      <path d="M 144.1526947021484 131.4930419921875 L 75.22503662109375 96.75350189208984 L 75 96.64008331298828 L 74.77496337890625 96.75350189208984 L 5.847310543060303 131.4930419921875 L 69.28791809082031 86.80877685546875 L 69.48232269287109 86.67185974121094 L 69.49880218505859 86.43463897705078 L 75 7.217360019683838 L 80.50119781494141 86.43463897705078 L 80.51767730712891 86.67185974121094 L 80.71208190917969 86.80877685546875 L 144.1526947021484 131.4930419921875 Z" stroke="none"/>
      <path d="M 75 14.43472290039062 L 69.99759674072266 86.46928405761719 L 69.96466064453125 86.94369506835938 L 69.57584381103516 87.21755981445312 L 11.69456481933594 127.9861068725586 L 74.54994201660156 96.30699920654297 L 75 96.08018493652344 L 75.45005798339844 96.30699920654297 L 138.3054351806641 127.9861068725586 L 80.42415618896484 87.21755981445312 L 80.03533935546875 86.94369506835938 L 80.00240325927734 86.46928405761719 L 75 14.43472290039062 M 75 0 L 81 86.40000152587891 L 150 135 L 75 97.19999694824219 L 0 135 L 69 86.40000152587891 L 75 0 Z" stroke="none" fill="#fff"/>
    </g>
    <g id="Polygon_14" data-name="Polygon 14" transform="translate(941 1060) rotate(180)" fill="#cbe6ff">
      <path d="M 144.1526947021484 131.4930419921875 L 75.22503662109375 96.75350189208984 L 75 96.64008331298828 L 74.77496337890625 96.75350189208984 L 5.847310543060303 131.4930419921875 L 69.28791809082031 86.80877685546875 L 69.48232269287109 86.67185974121094 L 69.49880218505859 86.43463897705078 L 75 7.217360019683838 L 80.50119781494141 86.43463897705078 L 80.51767730712891 86.67185974121094 L 80.71208190917969 86.80877685546875 L 144.1526947021484 131.4930419921875 Z" stroke="none"/>
      <path d="M 75 14.43472290039062 L 69.99759674072266 86.46928405761719 L 69.96466064453125 86.94369506835938 L 69.57584381103516 87.21755981445312 L 11.69456481933594 127.9861068725586 L 74.54994201660156 96.30699920654297 L 75 96.08018493652344 L 75.45005798339844 96.30699920654297 L 138.3054351806641 127.9861068725586 L 80.42415618896484 87.21755981445312 L 80.03533935546875 86.94369506835938 L 80.00240325927734 86.46928405761719 L 75 14.43472290039062 M 75 0 L 81 86.40000152587891 L 150 135 L 75 97.19999694824219 L 0 135 L 69 86.40000152587891 L 75 0 Z" stroke="none" fill="#fff"/>
    </g>
    <g id="Polygon_12" data-name="Polygon 12" transform="translate(1091 925) rotate(180)" fill="#0c4d98">
      <path d="M 144.1526947021484 131.4930419921875 L 75.22503662109375 96.75350189208984 L 75 96.64008331298828 L 74.77496337890625 96.75350189208984 L 5.847310543060303 131.4930419921875 L 69.28791809082031 86.80877685546875 L 69.48232269287109 86.67185974121094 L 69.49880218505859 86.43463897705078 L 75 7.217360019683838 L 80.50119781494141 86.43463897705078 L 80.51767730712891 86.67185974121094 L 80.71208190917969 86.80877685546875 L 144.1526947021484 131.4930419921875 Z" stroke="none"/>
      <path d="M 75 14.43472290039062 L 69.99759674072266 86.46928405761719 L 69.96466064453125 86.94369506835938 L 69.57584381103516 87.21755981445312 L 11.69456481933594 127.9861068725586 L 74.54994201660156 96.30699920654297 L 75 96.08018493652344 L 75.45005798339844 96.30699920654297 L 138.3054351806641 127.9861068725586 L 80.42415618896484 87.21755981445312 L 80.03533935546875 86.94369506835938 L 80.00240325927734 86.46928405761719 L 75 14.43472290039062 M 75 0 L 81 86.40000152587891 L 150 135 L 75 97.19999694824219 L 0 135 L 69 86.40000152587891 L 75 0 Z" stroke="none" fill="#fff"/>
    </g>
    <g id="Polygon_8" data-name="Polygon 8" transform="translate(1241 790) rotate(180)" fill="#cbe6ff">
      <path d="M 144.1526947021484 131.4930419921875 L 75.22503662109375 96.75350189208984 L 75 96.64008331298828 L 74.77496337890625 96.75350189208984 L 5.847310543060303 131.4930419921875 L 69.28791809082031 86.80877685546875 L 69.48232269287109 86.67185974121094 L 69.49880218505859 86.43463897705078 L 75 7.217360019683838 L 80.50119781494141 86.43463897705078 L 80.51767730712891 86.67185974121094 L 80.71208190917969 86.80877685546875 L 144.1526947021484 131.4930419921875 Z" stroke="none"/>
      <path d="M 75 14.43472290039062 L 69.99759674072266 86.46928405761719 L 69.96466064453125 86.94369506835938 L 69.57584381103516 87.21755981445312 L 11.69456481933594 127.9861068725586 L 74.54994201660156 96.30699920654297 L 75 96.08018493652344 L 75.45005798339844 96.30699920654297 L 138.3054351806641 127.9861068725586 L 80.42415618896484 87.21755981445312 L 80.03533935546875 86.94369506835938 L 80.00240325927734 86.46928405761719 L 75 14.43472290039062 M 75 0 L 81 86.40000152587891 L 150 135 L 75 97.19999694824219 L 0 135 L 69 86.40000152587891 L 75 0 Z" stroke="none" fill="#fff"/>
    </g>
  </g>
</svg>
