<svg xmlns="http://www.w3.org/2000/svg" width="300" height="363" viewBox="0 0 300 363">
  <g id="polygon_design_2" data-name="polygon design 2" transform="translate(0 -967)">
    <g id="Polygon_17" data-name="Polygon 17" transform="translate(0 967)" fill="#cbe6ff" opacity="0.303">
      <path d="M 294.1527404785156 266.4930725097656 L 150.2250366210938 193.9535064697266 L 150 193.8400726318359 L 149.7749633789062 193.9535064697266 L 5.847263813018799 266.4930725097656 L 138.2879180908203 173.2087707519531 L 138.4823150634766 173.0718536376953 L 138.4988098144531 172.8346557617188 L 150 7.217484474182129 L 161.5011901855469 172.8346557617188 L 161.5176849365234 173.0718536376953 L 161.7120819091797 173.2087707519531 L 294.1527404785156 266.4930725097656 Z" stroke="none"/>
      <path d="M 150 14.4349365234375 L 138.9976196289062 172.8692626953125 L 138.9646606445312 173.3436889648438 L 138.5758514404297 173.6175842285156 L 11.69473266601562 262.9860229492188 L 149.5499267578125 193.5070037841797 L 150 193.2801513671875 L 150.4500732421875 193.5070037841797 L 288.3052673339844 262.9860229492188 L 161.4241485595703 173.6175842285156 L 161.0353393554688 173.3436889648438 L 161.0023803710938 172.8692626953125 L 150 14.4349365234375 M 150 0 L 162 172.8000030517578 L 300 270 L 150 194.3999938964844 L 0 270 L 138 172.8000030517578 L 150 0 Z" stroke="none" fill="#fff"/>
    </g>
    <g id="Polygon_18" data-name="Polygon 18" transform="translate(300 1330) rotate(180)" fill="#cbe6ff" opacity="0.305">
      <path d="M 294.1527404785156 266.4930725097656 L 150.2250366210938 193.9535064697266 L 150 193.8400726318359 L 149.7749633789062 193.9535064697266 L 5.847263813018799 266.4930725097656 L 138.2879180908203 173.2087707519531 L 138.4823150634766 173.0718536376953 L 138.4988098144531 172.8346557617188 L 150 7.217484474182129 L 161.5011901855469 172.8346557617188 L 161.5176849365234 173.0718536376953 L 161.7120819091797 173.2087707519531 L 294.1527404785156 266.4930725097656 Z" stroke="none"/>
      <path d="M 150 14.4349365234375 L 138.9976196289062 172.8692626953125 L 138.9646606445312 173.3436889648438 L 138.5758514404297 173.6175842285156 L 11.69473266601562 262.9860229492188 L 149.5499267578125 193.5070037841797 L 150 193.2801513671875 L 150.4500732421875 193.5070037841797 L 288.3052673339844 262.9860229492188 L 161.4241485595703 173.6175842285156 L 161.0353393554688 173.3436889648438 L 161.0023803710938 172.8692626953125 L 150 14.4349365234375 M 150 0 L 162 172.8000030517578 L 300 270 L 150 194.3999938964844 L 0 270 L 138 172.8000030517578 L 150 0 Z" stroke="none" fill="#fff"/>
    </g>
  </g>
</svg>
